<?xml version="1.0" encoding="utf-8"?>
<!-- Generator: Adobe Illustrator 27.8.1, SVG Export Plug-In . SVG Version: 6.00 Build 0)  -->
<svg version="1.1" id="Layer_1" xmlns="http://www.w3.org/2000/svg" xmlns:xlink="http://www.w3.org/1999/xlink" x="0px" y="0px"
	 viewBox="0 0 18.2 18.2" style="enable-background:new 0 0 18.2 18.2;" xml:space="preserve">
<style type="text/css">
	.st0{fill:#FFFFFF;}
</style>
<g>
	<path class="st0" d="M12.7,0c0.1,1.7-0.6,2.9-2,3.8c-0.5,0.3-1.1,0.4-1.7,0.4c0-0.3,0-0.6,0.1-0.9c0.3-1.7,1.6-2.9,3.3-3.2
		c0,0,0.1,0,0.1,0C12.6,0,12.7,0,12.7,0z"/>
	<path class="st0" d="M16.5,13.4c-0.1,0.3-0.2,0.6-0.3,0.8c-0.5,1.1-1.1,2.1-1.9,3c-0.4,0.5-0.9,0.9-1.5,1c-0.5,0.1-1,0-1.5-0.2
		c-0.3-0.1-0.7-0.3-1.1-0.4c-0.7-0.2-1.3-0.1-2,0.1c-0.5,0.2-0.9,0.3-1.4,0.5c-0.6,0.2-1.1,0-1.6-0.3c-0.4-0.3-0.7-0.6-1-1
		c-1.4-1.6-2.2-3.5-2.5-5.6C1.6,10.1,1.6,8.9,2,7.8c0.5-1.5,1.5-2.7,3.1-3.2c0.8-0.2,1.5-0.2,2.3,0C7.8,4.8,8.3,5,8.7,5.1
		c0.4,0.1,0.7,0.1,1.1,0c0.7-0.2,1.3-0.5,2-0.6c1.7-0.3,3.1,0.2,4.2,1.6c0,0,0,0.1,0.1,0.1c-1.4,0.9-2.1,2.1-1.9,3.7
		C14.2,11.6,15.1,12.7,16.5,13.4z"/>
</g>
</svg>
